<?xml version="1.0" encoding="UTF-8" standalone="no"?>
<!-- Created with Inkscape (http://www.inkscape.org/) -->

<svg
   width="16.0px"
   height="16.0px"
   viewBox="0 0 16.0 16.0"
   version="1.1"
   id="SVGRoot"
   sodipodi:docname="icon.svg"
   inkscape:version="1.2.2 (b0a8486541, 2022-12-01)"
   xmlns:inkscape="http://www.inkscape.org/namespaces/inkscape"
   xmlns:sodipodi="http://sodipodi.sourceforge.net/DTD/sodipodi-0.dtd"
   xmlns="http://www.w3.org/2000/svg"
   xmlns:svg="http://www.w3.org/2000/svg">
  <sodipodi:namedview
     id="namedview261"
     pagecolor="#505050"
     bordercolor="#eeeeee"
     borderopacity="1"
     inkscape:showpageshadow="0"
     inkscape:pageopacity="0"
     inkscape:pagecheckerboard="0"
     inkscape:deskcolor="#505050"
     inkscape:document-units="px"
     showgrid="true"
     inkscape:zoom="41.277855"
     inkscape:cx="3.0524842"
     inkscape:cy="6.6016028"
     inkscape:window-width="1920"
     inkscape:window-height="1009"
     inkscape:window-x="1920"
     inkscape:window-y="152"
     inkscape:window-maximized="1"
     inkscape:current-layer="layer1">
    <inkscape:grid
       type="xygrid"
       id="grid384" />
  </sodipodi:namedview>
  <defs
     id="defs256" />
  <g
     inkscape:label="Layer 1"
     inkscape:groupmode="layer"
     id="layer1">
    <ellipse
       style="fill:#fff886;fill-opacity:1;stroke:#438624;stroke-width:0.489904;stroke-dasharray:none;stroke-opacity:1"
       id="path9268"
       cx="8"
       cy="8"
       rx="7.5050483"
       ry="7.5050478" />
    <path
       style="fill:#74b530;fill-opacity:1;stroke-width:0"
       d="m 6.4925854,14.002665 c 0,-1.727493 0,-2.689093 0,-2.689093 -1.0767067,0 -2.979806,-0.29071 -2.979806,-3.149388 0,-2.0834416 0.4791488,-3.0518722 1.0174948,-3.0524842 0.586743,-6.669e-4 0.9932686,0.5019482 0.9932686,2.8102236 0,0.9207058 -0.044006,1.3566596 1.0174948,1.3566596 0,0 -0.2875236,-7.0740111 1.3566596,-7.0740111 1.7155436,0 1.6703252,4.868041 1.6703252,4.868041 0.6237336,0 1.1883506,0.026066 1.1883506,-1.3310336 0,-1.3566597 0.208979,-1.9532968 0.799459,-1.9380852 0.590914,0.015223 0.799461,0.7994602 0.799461,2.3257022 0,2.7375454 -1.581871,2.592189 -2.8223196,2.592189 0,0 0,3.5538007 0,5.2755187 -1.4065612,0 -1.757808,0.0058 -3.040388,0.0058 z"
       id="path497"
       sodipodi:nodetypes="ccssscscsssccc" />
    <path
       id="path8811"
       style="color:#000000;fill:#438624;-inkscape-stroke:none"
       d="m 7.8982079,2.2043261 c -0.03408,0 -0.067169,0.00577 -0.099609,0.011719 V 14.001201 c 0.1057866,-3.54e-4 0.27169,-0.0016 0.3789062,-0.002 V 2.2531543 C 8.0895963,2.2223787 7.9975812,2.2043261 7.8982079,2.2043261 Z M 8.7985985,2.8195605 V 13.999248 c 0.1261843,-2.65e-4 0.2310079,-0.0018 0.3789062,-0.002 V 3.7394824 C 9.0785461,3.3928512 8.9540774,3.0753025 8.7985985,2.8195605 Z M 7.1775047,2.827373 C 7.0153484,3.1654779 6.8915947,3.6178688 6.7985985,4.1281543 v 9.8749997 c 0.1389229,-1.31e-4 0.2588382,-0.0017 0.3789062,-0.002 z M 11.798598,3.8664355 V 8.139873 c 0.15468,-0.1724766 0.28388,-0.3964582 0.378907,-0.6855469 V 4.3996386 C 12.08987,4.1292672 11.965002,3.9529418 11.798598,3.8664355 Z m -0.621093,0.046875 c -0.2026,0.1512132 -0.321681,0.4617274 -0.378907,0.9511719 v 3.7929687 c 0.130413,-0.024054 0.256906,-0.053866 0.378907,-0.099609 z M 4.7985985,5.1574511 v 5.7792969 c 0.1234491,0.06938 0.2505447,0.12315 0.3789062,0.169922 V 5.5090136 C 5.0708777,5.3185601 4.9431175,5.2114246 4.7985985,5.1574511 Z M 4.1775047,5.2668261 C 4.0341265,5.3980273 3.9049301,5.6145911 3.7985985,5.921123 v 3.8710938 c 0.1046529,0.2474042 0.2325988,0.4565222 0.3789062,0.6308592 z m 6.0000003,1.7539063 c -0.116562,0.034269 -0.2444438,0.047313 -0.3789065,0.050781 v 1.6503907 c 0.1257296,5.462e-4 0.2509945,-3.046e-4 0.3789065,-0.00391 z M 5.7985985,9.1262011 v 2.1386719 c 0.1312155,0.01991 0.2567322,0.03178 0.3789062,0.03906 V 9.2551074 c -0.1634331,-0.024 -0.286993,-0.066572 -0.3789062,-0.1289063 z" />
  </g>
</svg>
